<?xml version="1.0" encoding="utf-8"?>
<!-- Generator: Adobe Illustrator 22.1.0, SVG Export Plug-In . SVG Version: 6.00 Build 0)  -->
<svg version="1.1" id="Layer_1" xmlns="http://www.w3.org/2000/svg" xmlns:xlink="http://www.w3.org/1999/xlink" x="0px" y="0px"
	 viewBox="0 0 928 140" style="enable-background:new 0 0 928 140;" xml:space="preserve">
<style type="text/css">
	.st0{fill-rule:evenodd;clip-rule:evenodd;}
	.st1{fill-rule:evenodd;clip-rule:evenodd;fill:#FFFFFF;}
	.st2{fill:#010101;}
	.st3{opacity:0;}
</style>
<g>
	<g>
		<g>
			<polyline class="st0" points="3.2,-215.4 51.5,-215.4 98.9,-262.8 3.2,-262.8 3.2,-215.4 			"/>
		</g>
		<path class="st1" d="M60-253.9l-9.4,0v22.4l-8.2-22.4h-8.2l-7,18.7c-0.7-4.7-5.6-6.4-9.5-7.6c-2.5-0.8-5.2-2-5.2-3.3
			c0-1.1,1.4-2.1,4.3-1.9c1.9,0.1,3.6,0.3,6.9,1.9l3.3-5.7c-3-1.5-7.2-2.5-10.7-2.5h0c-4,0-7.3,1.3-9.4,3.4
			c-1.4,1.5-2.2,3.4-2.3,5.5c-0.1,2.9,1,4.9,3.2,6.6c1.9,1.4,4.3,2.3,6.4,2.9c2.6,0.8,4.7,1.5,4.7,3c0,0.5-0.2,1.1-0.6,1.5
			c-0.7,0.7-1.7,0.9-3,1c-2.7,0.1-4.6-0.4-7.8-2.2l-2.9,5.8c3.1,1.8,6.9,2.8,10.7,2.8l0.5,0c3.3-0.1,6-1,8.1-2.7
			c0.1-0.1,0.2-0.2,0.3-0.3l-0.9,2.5h8.6l1.4-4.4c1.5,0.5,3.2,0.8,5,0.8c1.8,0,3.4-0.3,4.9-0.8l1.4,4.3h13.9v-9h3
			c7.4,0,11.7-3.7,11.7-10C73.2-250.7,69-253.9,60-253.9z M38.2-234.7c-1.1,0-2.1-0.2-3-0.5l3-9.4h0.1l2.9,9.4
			C40.3-234.9,39.3-234.7,38.2-234.7z M60.5-240.1h-2.1v-7.6h2.1c2.8,0,5,0.9,5,3.7C65.5-241,63.3-240.1,60.5-240.1"/>
	</g>
	<path d="M63-218.6c0-1.4,1.1-2.5,2.5-2.5c1.4,0,2.5,1.1,2.5,2.5c0,1.5-1.1,2.6-2.5,2.6C64.1-216,63-217.1,63-218.6z M65.5-215.5
		c1.7,0,3.1-1.3,3.1-3.1c0-1.8-1.4-3.1-3.1-3.1c-1.7,0-3.1,1.3-3.1,3.1C62.4-216.8,63.8-215.5,65.5-215.5z M64.9-218.3h0.6l0.9,1.5
		H67l-1-1.6c0.5-0.1,0.9-0.3,0.9-1c0-0.7-0.4-1-1.2-1h-1.3v3.5h0.5V-218.3z M64.9-218.8v-1.1h0.7c0.4,0,0.8,0.1,0.8,0.5
		c0,0.5-0.4,0.6-0.9,0.6H64.9z"/>
</g>
<g>
	<g>
		<path class="st2" d="M209.7-229h9.7c0-0.8-0.3-2.5-0.5-3.1h-9.2V-229z"/>
		<path class="st2" d="M209.7-249.5h9.7c0,0.7-0.3,2.5-0.5,3.1h-9.2V-249.5z"/>
		<g>
			<path class="st2" d="M185.4-226.2h33.7c0,0.7-0.7,2.6-1,3.1h-32.7V-226.2z"/>
			<path class="st2" d="M185.4-255.3h32.7c0.3,0.5,0.9,2.4,1,3.1h-33.7V-255.3z"/>
			<path class="st2" d="M191.5-237.8h23.3c0.8,0.5,2.2,2.3,2.7,3.1h-26.1V-237.8z"/>
			<path class="st2" d="M191.5-240.6h23.4c0.8-0.5,2.2-2.3,2.7-3.1h-26.1V-240.6z"/>
			<path class="st2" d="M185.4-220.4h30.4c-2.7,2.3-5.1,3.1-9.3,3.1h-3h-18.2V-220.4z"/>
			<path class="st2" d="M185.4-258h30.4c-2.7-2.3-5.1-3.1-9.3-3.1h-3h-18.2V-258z"/>
			<rect x="191.5" y="-232" class="st2" width="9.1" height="3.1"/>
			<rect x="191.5" y="-249.5" class="st2" width="9.1" height="3.1"/>
		</g>
	</g>
	<g>
		<rect x="161.2" y="-261.1" class="st2" width="21.2" height="3.1"/>
		<rect x="161.2" y="-255.3" class="st2" width="21.2" height="3.1"/>
		<rect x="161.2" y="-226.2" class="st2" width="21.2" height="3.1"/>
		<rect x="167.2" y="-232" class="st2" width="9.1" height="3.1"/>
		<rect x="167.2" y="-237.8" class="st2" width="9.1" height="3.1"/>
		<rect x="167.2" y="-243.7" class="st2" width="9.1" height="3.1"/>
		<rect x="167.2" y="-249.5" class="st2" width="9.1" height="3.1"/>
		<rect x="161.2" y="-220.4" class="st2" width="21.2" height="3.1"/>
	</g>
	<g>
		<polygon class="st2" points="241.9,-229 250.3,-229 251.4,-232 240.8,-232 		"/>
		<polygon class="st2" points="239.9,-234.8 252.4,-234.8 253.4,-237.8 238.8,-237.8 		"/>
		<polygon class="st2" points="246,-217.3 246.3,-217.3 247.4,-220.4 244.9,-220.4 		"/>
		<rect x="227.9" y="-232" class="st2" width="9.1" height="3.1"/>
		<rect x="227.9" y="-237.8" class="st2" width="9.1" height="3.1"/>
		<rect x="221.8" y="-220.4" class="st2" width="15.2" height="3.1"/>
		<rect x="221.8" y="-226.2" class="st2" width="15.2" height="3.1"/>
		<polygon class="st2" points="243.9,-223.1 248.3,-223.1 249.4,-226.2 242.9,-226.2 		"/>
		<rect x="255.2" y="-232" class="st2" width="9.1" height="3.1"/>
		<rect x="255.2" y="-237.8" class="st2" width="9.1" height="3.1"/>
		<rect x="255.2" y="-220.4" class="st2" width="15.2" height="3.1"/>
		<rect x="255.2" y="-226.2" class="st2" width="15.2" height="3.1"/>
		<polygon class="st2" points="243.1,-249.5 227.9,-249.5 227.9,-246.4 244.2,-246.4 		"/>
		<polygon class="st2" points="247.1,-243.7 246.1,-240.9 245.2,-243.7 227.9,-243.7 227.9,-240.6 237,-240.6 237,-243 
			237.9,-240.6 254.4,-240.6 255.2,-243 255.2,-243 255.2,-243 255.2,-240.6 264.3,-240.6 264.3,-243.7 		"/>
		<polygon class="st2" points="239,-261.1 221.8,-261.1 221.8,-258 240.1,-258 		"/>
		<polygon class="st2" points="241,-255.3 221.8,-255.3 221.8,-252.2 242.1,-252.2 		"/>
		<polygon class="st2" points="249.1,-249.5 264.3,-249.5 264.3,-246.4 248.1,-246.4 		"/>
		<polygon class="st2" points="253.3,-261.1 270.4,-261.1 270.4,-258 252.2,-258 		"/>
		<polygon class="st2" points="251.2,-255.3 270.4,-255.3 270.4,-252.2 250.1,-252.2 		"/>
	</g>
	<path class="st2" d="M276.2-220.2c0.5,0,1.1,0.1,1.1-0.6c0-0.5-0.4-0.6-0.8-0.6h-0.9v1.2H276.2z M277.8-218.4h-0.5l-0.9-1.5h-0.7
		v1.5h-0.4v-3.3h1.4c0.9,0,1.2,0.3,1.2,0.9c0,0.6-0.4,0.9-1,0.9L277.8-218.4z M278.7-220c0-1.4-1-2.5-2.4-2.5
		c-1.4,0-2.5,1.1-2.5,2.5c0,1.4,1,2.5,2.5,2.5C277.7-217.5,278.7-218.6,278.7-220 M273.4-220c0-1.6,1.3-2.9,2.9-2.9
		c1.6,0,2.9,1.3,2.9,2.9c0,1.6-1.3,2.9-2.9,2.9C274.7-217.1,273.4-218.4,273.4-220"/>
</g>
<g>
	<g>
		<g>
			<path d="M354.6-224.3c0,3-1.2,7-4.9,7c-1.8,0-2.9-0.9-2.9-2.8C346.8-223.6,352-224.3,354.6-224.3 M359.8-214v-16.7
				c0-5.4-3.5-7.3-8.5-7.3c-4.9,0-8.9,2.1-8.9,7.4h5.3c0-2.3,1.2-3.6,3.6-3.6c2.7,0,3.3,2,3.3,4.3v2.3c-5.3,0.1-13.1,0.9-13.1,7.9
				c0,4,3.1,6.1,6.9,6.1c2.6,0,4.9-0.8,6.1-3.2h0.1v2.7H359.8 M376-229.3h5.8c0-5.8-3.2-8.6-8.9-8.6c-7,0-10.7,4.4-10.7,11.2
				c0,8.2,4.2,13.3,12.5,13.3c2.3,0,4.6-0.4,6.8-1.1v-3.3c-1.3,0.4-2.6,0.6-3.9,0.6c-6.2,0-9.6-4.5-9.6-10.4c0-2.8,1-6.4,4.5-6.4
				C375.3-234,376-231.7,376-229.3 M396.9-229.3h5.8c0-5.8-3.2-8.6-8.9-8.6c-7,0-10.7,4.4-10.7,11.2c0,8.2,4.2,13.3,12.5,13.3
				c2.3,0,4.6-0.4,6.8-1.1v-3.3c-1.3,0.4-2.6,0.6-3.9,0.6c-6.2,0-9.6-4.5-9.6-10.4c0-2.8,1-6.4,4.5-6.4
				C396.2-234,396.9-231.7,396.9-229.3 M418.3-230.4h-8.6c0.2-2.4,2.1-4,4.4-4C416.7-234.4,418.3-232.9,418.3-230.4 M423.5-227.1
				v-1.3c0-5.7-2.9-9.5-8.9-9.5c-7,0-10,4.4-10,11c0,7.7,3.5,13.5,11.8,13.5c2.2,0,4.4-0.2,6.5-0.9v-3.8c-1.4,0.5-3,0.9-4.5,0.9
				c-5.3,0-8.8-4.9-8.8-9.8H423.5 M439.7-214h5.5v-16.2c0-4-1.9-7.7-6.4-7.7c-3.3,0-5.7,1.9-6.9,4.9h-0.1v-4.4h-5.5v23.4h5.5v-10.1
				c0-3.2,1.6-8.7,5.5-8.7c0.6,0,1.2,0,1.6,0.4c0.9,0.9,0.8,3.9,0.8,5V-214 M456.5-233.6h6.9v-3.8h-6.9v-7.8l-5.4,2.2v5.5h-4.6v3.8
				h4.6v13.7c0,4.9,2.4,6.4,7.2,6.4c1.5,0,3-0.1,4.5-0.4v-3.8c-0.8,0.2-1.7,0.4-2.5,0.4c-3.4,0-3.7-2.5-3.7-5.3V-233.6 M479.2-214
				h5.5v-23.4h-5.5v10.1c0,3.2-1.6,8.7-5.5,8.7c-0.5,0-1.2,0-1.6-0.4c-0.9-0.9-0.8-3.9-0.8-5v-13.4h-5.4v16.2c0,4,1.9,7.7,6.3,7.7
				c3.3,0,5.7-2,6.9-4.9h0.1V-214 M493.5-224.2c0-5.5,2.1-8,7.7-8v-5.7c-3.9,0-5.8,1.6-7.6,4.9h-0.1v-4.3h-5.5v23.4h5.5V-224.2
				 M516.1-230.4h-8.6c0.2-2.4,2.1-4,4.4-4C514.4-234.4,516.1-232.9,516.1-230.4 M521.2-227.1v-1.3c0-5.7-2.9-9.5-8.9-9.5
				c-7,0-10,4.4-10,11c0,7.7,3.5,13.5,11.8,13.5c2.2,0,4.4-0.2,6.5-0.9v-3.8c-1.4,0.5-3,0.9-4.5,0.9c-5.3,0-8.8-4.9-8.8-9.8H521.2"
				/>
			<path d="M446.4-264.8v3.8c0,0,10.9,4.2,12.5,4.8c-1.6,0.6-12.5,4.8-12.5,4.8v3.8l17-6.9v-3.5L446.4-264.8"/>
		</g>
	</g>
</g>
<g>
	<polygon points="583.9,-217.6 583.9,-260.6 608.3,-260.6 613.9,-250.7 596.7,-250.7 596.7,-243.6 612.3,-243.6 612.3,-234.6 
		596.7,-234.6 596.7,-227.5 618.2,-227.5 618.2,-217.6 	"/>
	<polygon class="st3" points="596.7,-234.6 612.3,-234.6 612.3,-243.6 596.7,-243.6 596.7,-250.7 613.9,-250.7 608.3,-260.6 
		583.9,-260.6 583.9,-217.6 618.2,-217.6 618.2,-227.5 596.7,-227.5 	"/>
	<polygon points="627.3,-217.6 627.3,-234.6 612.3,-260.6 626.6,-260.6 633.8,-246.5 641.1,-260.6 655.2,-260.6 640.1,-234.6 
		640.1,-217.6 	"/>
	<polygon class="st3" points="641.1,-260.6 633.8,-246.5 626.6,-260.6 612.3,-260.6 627.3,-234.6 627.3,-217.6 640.1,-217.6 
		640.1,-234.6 655.2,-260.6 	"/>
</g>
<g transform="matrix(1.25 0 0 -1.25 -279.62 519.24)">
	<g transform="matrix(.25 0 0 .25 224.45 297.78)">
		<path d="M591.6,163.8c0,0,13.5-55.3,15.6-64.3c2.5-10.5,7-14.3,20.1-11.7l8.4,34.3c2.1,8.5,3.6,14.6,4.9,23.3h0.2
			c1-8.7,2.3-14.8,4.1-23.3c0,0,3.4-15.6,5.2-23.7c1.8-8.2,6.7-13.3,19.5-10.5l20.1,76h-16.2l-6.9-32.9c-1.8-9.6-3.5-17-4.8-25.8
			h-0.2c-1.2,8.7-2.7,15.8-4.5,25.2l-7.1,33.5h-16.9l-7.6-32.6c-2.2-9.9-4.2-17.9-5.5-26.4h-0.2c-1.3,8-3.1,18-5,27.6
			c0,0-4.5,23.3-6.1,31.4L591.6,163.8L591.6,163.8z M746.1,163.8v-76h15.4V104v59.9L746.1,163.8L746.1,163.8z M963.5,163.8v-56.1
			c0-7.7,1.5-13.1,4.6-16.5c2.7-2.9,7.2-4.8,12.6-4.8c4.6,0,9.1,0.9,11.2,1.7l-0.2,12.1c-1.6-0.4-3.4-0.7-5.9-0.7
			c-5.3,0-7,3.4-7,10.3v21.5h13.4v14.5h-13.4v18L963.5,163.8L963.5,163.8z M711.6,146.2c-9.6,0-17.2-2.7-21.4-5.1l3-10.4
			c3.8,2.4,9.8,4.4,15.6,4.4c9.5,0,11-5.4,11-8.8v-0.8c-20.7,0-33.7-7.1-33.7-21.7c0-8.9,6.6-17.2,18.2-17.2
			c7.1,0,13.1,2.8,16.6,7.4h0.3c0,0,2.4-9.9,15.4-6.1c-0.7,4.1-0.9,8.5-0.9,13.8v20.3C735.8,134.8,730.3,146.2,711.6,146.2
			L711.6,146.2z M804,146.2c-9.7,0-14-4.9-16.6-9h-0.2v7.8h-14.7V87.8h15.5v33.5c0,1.6,0.2,3.2,0.7,4.7c1.3,3.4,4.4,7.3,9.4,7.3
			c6.3,0,9.2-5.3,9.2-12.9V87.8h15.5v33.9c0,1.5,0.2,3.3,0.6,4.6c1.3,3.8,4.7,7,9.3,7c6.3,0,9.4-5.2,9.4-14.2V87.8h15.5v33.6
			c0,17.7-9,24.8-19.2,24.8c-4.5,0-8.1-1.1-11.3-3.1c-2.7-1.7-5.1-4-7.2-7.1h-0.2C817.2,142.2,811.5,146.2,804,146.2L804,146.2z
			 M889.2,146.2c-9.6,0-17.2-2.7-21.4-5.1l3-10.4c3.8,2.4,9.8,4.4,15.6,4.4c9.5,0,11-5.4,11-8.8v-0.8c-20.7,0-33.7-7.1-33.7-21.7
			c0-8.9,6.6-17.2,18.2-17.2c7.1,0,13.1,2.8,16.6,7.4h0.4c0,0,2.4-9.9,15.4-6.1c-0.7,4.1-0.9,8.5-0.9,13.8v20.3
			C913.4,134.8,907.8,146.2,889.2,146.2L889.2,146.2z M953.6,146.2c-5.9,0-12.7-3.8-15.5-12.1h-0.4v10.8h-14V87.8h15.9v29.2
			c0,1.6,0.1,3,0.3,4.2c1.2,6.1,5.9,10,12.6,10c1.8,0,3.2-0.2,4.6-0.4v14.9C955.9,146.1,955.1,146.2,953.6,146.2L953.6,146.2z
			 M720.4,115.3v-7.1c0-1.1-0.1-2.1-0.4-3.1c-1.2-4-5.3-7.3-10.4-7.3c-4.3,0-7.7,2.4-7.7,7.6C702,113.2,710.6,115.4,720.4,115.3
			L720.4,115.3z M897.9,115.3v-7.1c0-1.1-0.1-2.1-0.4-3.1c-1.2-4-5.3-7.3-10.4-7.3c-4.3,0-7.7,2.4-7.7,7.6
			C879.5,113.2,888.1,115.4,897.9,115.3L897.9,115.3z"/>
		<path d="M1075.6,191.3c-5,0-8.9-2.8-8.9-6.2l3-34.3c0.3-2.1,2.9-3.7,5.9-3.7c3.1,0,5.6,1.6,5.9,3.7l3,34.3
			C1084.6,188.5,1080.6,191.3,1075.6,191.3L1075.6,191.3z M1026.3,163.8c-2.6-0.1-5.5-2-7.4-5.3c-2.5-4.3-2.1-9.1,0.9-10.8
			l31.2-14.5c1.9-0.7,4.6,0.7,6.1,3.3c0,0,0,0,0,0c1.5,2.7,1.4,5.6-0.2,7l-28.2,19.8C1028,163.7,1027.2,163.9,1026.3,163.8
			L1026.3,163.8z M1124.9,163.8c-0.9,0-1.7-0.2-2.4-0.6l-28.2-19.8c-1.6-1.3-1.7-4.3-0.2-7l0,0c1.5-2.6,4.2-4,6.1-3.3l31.2,14.5
			c2.9,1.7,3.4,6.5,0.9,10.8C1130.5,161.8,1127.5,163.8,1124.9,163.8L1124.9,163.8z M1052.1,118.6c-0.4,0-0.8-0.1-1.2-0.2
			l-31.2-14.5c-2.9-1.7-3.4-6.5-0.9-10.8c2.5-4.3,6.9-6.4,9.8-4.7l28.2,19.7c1.6,1.3,1.7,4.3,0.2,7l0,0
			C1055.9,117.3,1053.9,118.6,1052.1,118.6L1052.1,118.6z M1099.1,118.6c-1.7,0-3.7-1.3-5-3.5l0,0c-1.5-2.7-1.4-5.6,0.2-7l28.2-19.7
			c2.9-1.7,7.3,0.4,9.8,4.7c2.5,4.3,2.1,9.1-0.9,10.8l-31.2,14.5C1099.9,118.6,1099.5,118.6,1099.1,118.6L1099.1,118.6z
			 M1075.6,104.4c-3.1,0-5.6-1.6-5.9-3.6l-3-34.3c0-3.4,4-6.2,8.9-6.2c5,0,9,2.8,9,6.2l-3,34.3
			C1081.2,102.8,1078.7,104.4,1075.6,104.4L1075.6,104.4L1075.6,104.4z"/>
	</g>
</g>
<g>
	<path d="M34.6,105.5c2.4,0,3.1,2.2,3.1,3.4c0,0-6.5,0-6.5,0C31.3,107.2,32.5,105.5,34.6,105.5z M41.5,115.6
		c-0.7,0.2-1.4,0.4-2.1,0.6c-0.8,0.2-1.7,0.3-2.6,0.3c-2.8,0-5.1-0.9-5.4-3.2h12.1c0.1-0.4,0.2-1.5,0.2-2.6c0-5.1-2.5-9.8-9-9.8
		c-6.3,0-9.7,4.9-9.7,10.5c0,6.4,4.5,10,10.7,10c1.6,0,2.8-0.1,3.7-0.3c1-0.2,2.1-0.5,3-0.9L41.5,115.6z"/>
	<path d="M128.7,105.5c2.4,0,3.1,2.2,3.1,3.4c0,0-6.5,0-6.5,0C125.4,107.2,126.6,105.5,128.7,105.5z M135.6,115.6
		c-0.7,0.2-1.4,0.4-2.1,0.6c-0.8,0.2-1.7,0.3-2.6,0.3c-2.8,0-5.1-0.9-5.4-3.2h12.1c0.1-0.4,0.2-1.5,0.2-2.6c0-5.1-2.5-9.8-9-9.8
		c-6.3,0-9.7,4.9-9.7,10.5c0,6.4,4.5,10,10.7,10c1.6,0,2.7-0.1,3.7-0.3c1-0.2,2.1-0.5,3-0.9L135.6,115.6z"/>
	<path d="M46.7,94.4V121h6.6V94.4H46.7z"/>
	<path d="M66.5,116.6c-2.1,0-3.5-2.1-3.5-5.4c0-2.6,0.9-5.4,3.6-5.4c2.5,0,3.4,2.9,3.4,5.3C70,114.4,68.6,116.6,66.5,116.6z
		 M66.4,121.4c5.1,0,10.3-3.2,10.3-10.4c0-4.3-2.5-10.1-10-10.1c-7.7,0-10.5,5.6-10.5,10.4C56.3,117.3,60.5,121.4,66.4,121.4z"/>
	<path d="M79.6,101.4V121h6.6v-19.7H79.6z"/>
	<path d="M79.6,94.4v5.1h6.6v-5.1H79.6z"/>
	<path d="M91.4,96v5.3h-2.5v4.9h2.5v8.1c0,4.4,2,7.1,6.6,7.1c0.9,0,1.8-0.1,2.7-0.2c0.8-0.1,1.6-0.3,1.9-0.4c0,0,0-5.1,0-5.2
		c-0.2,0.1-1.7,0.3-2.2,0.3c-0.5,0-1.3-0.1-1.9-0.6c-0.4-0.4-0.7-1.1-0.7-2.2v-7h4.2v-4.9c0,0-3.7,0-4.2,0c0-0.6,0-6.1,0-6.1
		L91.4,96z"/>
	<path d="M106.6,96v5.3h-2.5v4.9h2.5v8.1c0,4.4,2,7.1,6.6,7.1c0.9,0,1.8-0.1,2.7-0.2c0.8-0.1,1.6-0.3,1.9-0.4c0,0,0-5.1,0-5.2
		c-0.2,0.1-1.7,0.3-2.2,0.3c-0.5,0-1.3-0.1-1.9-0.6c-0.4-0.4-0.7-1.1-0.7-2.2v-7h4.2v-4.9c0,0-3.7,0-4.2,0c0-0.6,0-6.1,0-6.1
		L106.6,96z"/>
	<path d="M140,117.8c0-2,1.6-3.6,3.6-3.6c2,0,3.6,1.6,3.6,3.6c0,2-1.6,3.6-3.6,3.6C141.6,121.4,140,119.8,140,117.8z"/>
	<path d="M-0.4,121h7.4c0.5,0,1.1,0,1.6,0c10.2-0.5,14.4-6.6,14.4-13.5c0-8.7-5.9-13.6-16-13.6c-2.6,0-4.9,0.1-7.5,0.3V121z
		 M9.1,115.7c-0.3,0-0.7,0-0.9,0H6.1c0,0,0-16.4,0-16.4c0.7-0.1,1.6-0.1,2.2-0.1c3.8,0,7.9,2.5,7.9,8.2
		C16.3,113.5,12.4,115.5,9.1,115.7z"/>
</g>
<g id="layer1_1_" transform="translate(0,-530.73815)" inkscape:groupmode="layer" inkscape:label="Layer 1">
	<path id="path16" inkscape:connector-curvature="0" d="M864,639.4h-6.3l0.7-10.9l-4.1,10.9h-5.8l9.2-24.6h6.2l-0.7,11.1l4.2-11.1
		h5.8L864,639.4"/>
	<path id="path18" inkscape:connector-curvature="0" d="M864.8,639.4l9.2-24.6h5.8l-9.2,24.6H864.8"/>
	<path id="path20" inkscape:connector-curvature="0" d="M847.9,630.9c-8.1,9.6-15.8,22.3-9,28.1c6.6,5.7,14.8,2.3,20.4,0.1
		c5.6-2.2,67.5-29.1,67.5-29.1c0.6-0.3,0.5-0.7-0.3-0.5c-0.3,0.1-67.4,18.3-67.4,18.3C850.6,650.1,840.8,644.9,847.9,630.9"/>
	<path id="path28" inkscape:connector-curvature="0" d="M887.4,637.7l-0.4-12.8l8.8-9.7L887.4,637.7z M906.2,618.8l1.6-4.1H890
		l-6.1,7.4l2.8-7.4h-5.9l-9.2,24.6h5.8l3.9-10.3l0.3,10.3l17.9,0l1.7-4.7h-6.8l2.2-6h5.6l1.7-4.6h-5.6l1.9-5.2H906.2"/>
</g>
<path d="M289.4-169h5.5v1.9c0.6-0.5,2.5-2.4,6.1-2.4c4.2,0,7.5,3.1,7.5,7.9v12.6h-5.9v-11c0-2.7-1.3-4.3-3.7-4.3
	c-2.3,0-3.7,1.5-3.7,4.3v11h-5.9V-169 M345.2-159c0-5.8,4.6-10.5,10.7-10.5c6.1,0,10.7,4.7,10.7,10.5c0,5.8-4.6,10.5-10.7,10.5
	C349.8-148.5,345.2-153.2,345.2-159 M350.9-159c0,2.8,2.1,5,4.9,5c2.9,0,5-2.3,5-5c0-2.8-2.1-5-5-5C353-164,350.9-161.7,350.9-159
	 M264.7-159c0-5.8,4.6-10.5,10.7-10.5c6.1,0,10.7,4.7,10.7,10.5c0,5.8-4.6,10.5-10.7,10.5C269.3-148.5,264.7-153.2,264.7-159
	 M270.5-159c0,2.8,2.1,5,4.9,5c2.9,0,4.9-2.3,4.9-5c0-2.8-2.1-5-4.9-5C272.5-164,270.5-161.7,270.5-159 M395-171.2h5.9v-5.1H395
	V-171.2z M395-149h5.9v-20H395V-149z M405.5-149h5.9v-27.4h-5.9V-149z M375.6-149H370v-27.4h5.7v8.9c0.3-0.2,2.1-2.1,6.2-2.1
	c5.3,0,9.7,4.5,9.7,10.5c0,5.9-4.7,10.5-9.7,10.5c-3.8,0-5.7-1.7-6.1-2L375.6-149 M385.5-159c0-2.8-2.1-5-5-5c-2.8,0-5,2.2-5,5
	c0,2.8,2.2,5,5,5C383.3-154,385.5-156.2,385.5-159 M230.2-149h6.9l6.2-7.9l3.9,3.9l-8.8,11h6.9l5.6-7.3l10.6,10.8h8.3l-15.3-15.3
	l12-15.2h-6.9l-8.9,11.4l-3.8-3.9l9.9-12.4h-6.9l-6.7,8.7l-3.7-3.8h-8.2l8.3,8.3L230.2-149 M210.8-176.3v27.4h18v-5.1h-11.9v-6.5
	h11.4v-4.9h-11.4v-5.7h11.9v-5.1H210.8 M313.2-176.3v27.4h5.8v-20.7h0.3l5,20.7h6.5l5.1-20.7h0.3v20.7h5.8v-27.4h-9.4l-4.7,20h-0.2
	l-4.6-20H313.2"/>
<g>
	<path id="path188" d="M337.4,31.4c-0.1-6.3,5.1-9.3,5.3-9.4c-2.9-4.3-7.4-4.8-9-4.9c-3.8-0.4-7.5,2.3-9.5,2.3c-2,0-5-2.2-8.2-2.1
		c-4.2,0.1-8.1,2.4-10.2,6.2c-4.4,7.6-1.1,18.8,3.1,24.9c2.1,3,4.6,6.4,7.8,6.3c3.1-0.1,4.3-2,8.1-2c3.8,0,4.9,2,8.2,2
		c3.4-0.1,5.5-3.1,7.6-6.1c2.4-3.5,3.4-6.9,3.4-7C343.9,41.4,337.4,38.9,337.4,31.4"/>
	<path id="path190" d="M331.1,13.1c1.7-2.1,2.9-5,2.6-7.9c-2.5,0.1-5.5,1.7-7.3,3.8c-1.6,1.8-3,4.8-2.6,7.6
		C326.6,16.8,329.4,15.2,331.1,13.1"/>
</g>
<g>
	<path d="M581.8,112c4.3,0,7.6-3.5,7.6-7.6c-0.3-1.8-0.9-5.2-5.6-5.2c-5.1,0-6.8,7.2-11,11.8c-0.3,2.6-2.8,5-5.9,5.4
		c0.8,0.8,2.5,1.2,4.5,1.2c3.7,0,8.2-1.1,10.5-3.4c-3.1,0-5.1-2-5.3-4.8C578,111.3,579.7,112,581.8,112"/>
	<path d="M548.8,100.6c0-2.3-0.1-3.8-1.6-3.8c-0.7,0-1,0.1-1.6,0.3c0.5,7.7-1.2,14.5-3.3,14.5c-2.8,0-1.4-16.5-7.3-16.5
		c-5.4,0-6.2,13.2-6.8,13.2c-0.4,0-0.5-3.5-0.5-6.1c0.2-1.3,0.4-2.4,0.4-3.3c0-1.2-0.5-3.3-3.3-2.3c0.1,9.4-1.8,15.1-3.9,15.1
		c-3.1,0-3.1-8.5-3.1-10.9c0-2.3,0.2-5.4-3.3-4.3c-0.5,8.2-2.7,14.4-4,14.4c-2,0-1.6-14.2-6-14.2c-3.9,0-5.2,13.4-6,13.4
		c-1.5,0,0.5-15.1-5.2-15.1c-3,0-4.2,5.1-5.3,10.7c-0.2,1.1-0.5,1.1-0.5-0.1c0-1.1,0-2.1,0-3.2c1.4-5.7-0.3-7.8-2.9-6.3
		c0.8,10.5-4,15.6-7.7,15.6c-1.3,0-2.4-0.6-3.2-1.5c4.4-2.7,6.4-5.8,6.4-8.9c0-3.3-1.9-5.2-5-5.2c-4.4,0-6.9,4.5-6.9,8.4
		c0,2.1,0.4,3.8,1,5.3c-1.5,0.7-2.9,1.3-4.3,1.9c-0.1-4-0.6-8.1-0.9-12c-2.3-0.6-3,0.5-3.2,2.6c-0.4,4.8-2.2,7.7-3.7,7.7
		c-1.2,0-1.9-1.4-2-2.9c-0.4-7.6,5.8-9.7,9-8.6c0.7-1.7-0.1-2.9-3-2.9c-3.5,0-6.2,2.1-8.1,4.9c-1.3,1.8-2.8,3.1-4.8,4.7
		c0.1-0.5,0.1-0.9,0.1-1.4c0-5.4-2.9-7.7-5.7-7.7c-2.3,0-3.7,1.4-4.6,3.5c-0.2-2.1-0.6-3-1.9-3c-0.5,0-1.3,0.1-2,0.5
		c0.4,1.2,0.5,3.8,0.5,5.5c0,6.5-1.9,9.4-3.6,9.4c-2,0-2.4-7.7-2.5-10.6c-0.3-0.1-0.7-0.2-1-0.2c-1.8,0-2.1,2.5-2.5,4.7
		c-0.5,2.5-2,5.7-4.1,5.7c-1.3,0-2.1-1.3-2.2-3.5c-0.2-4.6,3.6-10,9.5-8.3c0.8-1.8-0.4-3.2-2.9-3.2c-4.3,0-7.9,3.3-9.5,7.1
		c-1.6,3.5-4.4,8.7-10,8.7c-4,0-7.1-3.5-7.1-10.8c0-6.3,4-12.3,8.2-12.3c3,0,3.7,2.9,3.4,5.7c1.5,1.2,4.1,0.1,4.1-3
		c0-2.1-1.7-5.7-7.3-5.7c-6.9,0-13,6.9-13,15.9c0,8.8,4.4,13.9,10.7,13.9c4,0,7.7-2.3,10.3-6.4c0.6,3.7,3.1,5.2,5,5.2
		c3,0,5-2,6.1-4.6c0.7,2.7,2.1,4.6,4.4,4.6c1.7,0,3-0.8,3.9-2.2c-0.4,9.2-0.9,15.1,4.6,13.9c-0.8-2.6-1.1-7.4-1.1-11.7
		c0-11.7,1.9-15.6,4.4-15.6c1.8,0,2.3,2.2,2.3,4.6c0,1.3-0.1,2.7-0.4,4.1c-3,1.9-5.4,3.4-5.4,5.2c0,1.5,1.1,1.6,2.1,1.6
		c2.3,0,5-2.2,6.6-6.5c1.3-0.8,2.7-1.7,3.9-3c0,0.4-0.1,0.9-0.1,1.3c0,4.2,1.8,6.7,4.8,6.7c2.3,0,4-1.6,5.2-4.1
		c0.1,1.4,0.1,2.7,0.1,3.9c-4.7,2.2-9.8,4.4-9.8,10.4c0,3.2,2.3,5.5,5.2,5.5c6.5,0,8-6.9,8.1-14.8c2.1-0.9,3.7-1.6,5.5-2.5
		c1.6,1.9,3.7,2.9,5.6,2.9c3.7,0,6.4-1.9,8.6-5.9c0.4,3,1.2,5.9,2.8,5.9c2.9,0,3.5-15.2,5.7-15.2c1.7,0,0.3,16.5,4.7,16.5
		c3.7,0,4.5-14.5,6.3-14.5c1.3,0,1.4,13.2,5.5,13.2c2,0,4.2-2.4,5.3-7.5c0.5,3.4,2.2,7.5,5.5,7.5c1.9,0,3.6-2,4.9-4.6
		c0.4,2.7,1.1,4.6,2.6,4.6c3.8,0,3.7-15.2,6.7-15.2c2.4,0,1.6,15.2,7.2,15.2c2.7,0,3.9-2.3,4.7-5.1c1,4.2,2.7,5.1,4.1,5.1
		c0.9,0,1.5-0.3,2.4-1.3C548.5,111.8,548.8,105,548.8,100.6 M457.1,126.6c-1.3,0-2.1-1.3-2.1-2.7c0-3.9,2.9-6,6.4-7.7
		C461.2,124.7,459.2,126.6,457.1,126.6 M474.6,99c1.3,0,2.1,1.2,1.9,2.9c-0.2,2-1.6,4.4-4.2,6.2C470.9,104.4,471.9,99,474.6,99
		 M516.1,93.3c1.2,0,2.1-1.1,2.1-2.4s-0.9-2.3-2.1-2.2c-1.2,0-2.3,1.1-2.3,2.4C513.8,92.3,514.8,93.3,516.1,93.3 M547.2,93.9
		c1.1,0,2.1-1.1,2.1-2.3c0-1.2-0.9-2.2-2.1-2.1c-1.1,0-2.1,1.1-2.1,2.3C545.1,93,546,94,547.2,93.9 M589.4,104
		c-0.1-4.8-2.4-8.9-5.9-12.1c-2.7-2.4-5.9-4.3-9.2-5.7c-0.3-0.1-0.5-0.2-0.8-0.3h0c-4.1,4.9-18.3,8.6-18.3,18.9c0,4,2.5,7.8,6.3,9.3
		c2.2,0.8,4.3,0.9,6.5,0.1c1.9-0.6,3.5-1.8,4.8-3.3c4.2-4.6,5.9-11.8,11-11.8c4.7,0,5.3,3.3,5.6,5.2
		C589.4,104.3,589.4,104.2,589.4,104"/>
</g>
<g>
	<g id="g49099">
		<g id="g49105" transform="translate(717.83569,765.202)">
			<path id="path49107" d="M-76.3-647.1c-2.8,0-5.3-1-7.4-2.6c2.4-5.3,7.2-12.5,13.7-19.4c3.3,2.1,5.6,5.8,5.6,10.1
				c0,1.8-0.4,3.5-1.1,5.1c-2.1-1-4-2.2-5.7-3.7l3.6,6.7C-69.8-648.6-72.9-647.1-76.3-647.1 M-88.2-659.1c0-6.6,5.3-11.9,11.9-11.9
				c1.8,0,3.4,0.4,4.9,1.1c-6.5,5.7-11.5,12.3-14.4,18.1C-87.3-653.8-88.2-656.3-88.2-659.1 M-64.1-653.3c0.8-1.7,1.3-3.7,1.3-5.7
				c0-4.7-2.4-8.9-6-11.3c2.2-2.2,4.5-4.4,7-6.6c-2.9,1.7-5.7,3.7-8.2,5.8c-1.9-1-4-1.5-6.3-1.5c-7.5,0-13.5,6.1-13.5,13.5
				c0,3.4,1.2,6.5,3.3,8.8c-2.6,5.6-3,10.1-0.8,11.6c2.4,1.6,7.8-1.3,11-6.1c0,0-4.9,4.5-7.7,3.4c-1.7-0.6-1.7-3.2-0.3-6.8
				c2.2,1.6,5,2.6,8,2.6c3.7,0,7.1-1.5,9.5-3.9l0.5,0.9c5.9-0.5,23.5-0.9,23.5-0.9C-42.8-650.3-54.5-649.5-64.1-653.3"/>
		</g>
	</g>
	<g id="g49109" transform="matrix(2.0487844,0,0,-2.0487844,602.03179,514.19056)">
		<path id="path49111" d="M64.7,199.8l1.1,1.4l-3.8,0l0.9,1.2h3.8l1.1,1.4h-7.5l-5.2-6.8h7.5l1.1,1.4h-3.7l1,1.3H64.7z"/>
	</g>
	<g id="g49113" transform="matrix(2.0487844,0,0,-2.0487844,620.74747,499.48661)">
		<path id="path49115" d="M60.8,196.7l-5.1-6.8h3.7l5.2,6.8H60.8z"/>
	</g>
	<g id="g49117" transform="matrix(2.0487844,0,0,-2.0487844,665.54498,499.48661)">
		<path id="path49119" d="M51.3,196.7l-2.6-3.5l-0.8,3.5H45l-5.2-6.8h2.5l2.6,3.4l0.8-3.4h3l5.2,6.8H51.3z"/>
	</g>
	<g id="g49123">
		<g id="g49129" transform="translate(850.0741,783.6571)">
			<path id="path49131" d="M-54.3-687.1l-12.3,0c-2.1,0-4,1-5.2,2.6l-6.4,8.4c-0.2,0.3-0.4,0.7-0.4,1.1c0,1,0.8,1.9,1.9,1.9h12.3
				c2.1,0,4-1,5.2-2.6l1.5-2h1.8l2.2-3h-9.4l-3,3.9c-0.3,0.4-0.8,0.7-1.3,0.7h-2.2c-0.3,0-0.5-0.2-0.5-0.5c0-0.1,0-0.2,0.1-0.3
				l5-6.7c0.3-0.4,0.8-0.7,1.3-0.7h2.2c0.3,0,0.5,0.2,0.5,0.5c0,0.1,0,0.2-0.1,0.3l-0.8,1.1h7.6l1.4-1.8c0.2-0.3,0.4-0.7,0.4-1.1
				C-52.4-686.3-53.3-687.1-54.3-687.1"/>
		</g>
		<g id="g49133" transform="translate(777.155,780.47639)">
			<path id="path49135" d="M-66.4-680.2l-5,6.7c-0.3,0.4-0.8,0.7-1.3,0.7H-75c-0.3,0-0.5-0.2-0.5-0.5c0-0.1,0-0.2,0.1-0.3l5-6.7
				c0.3-0.4,0.8-0.7,1.3-0.7h2.2c0.3,0,0.5,0.2,0.5,0.5C-66.4-680.4-66.4-680.3-66.4-680.2 M-57.9-682.1c0-1-0.8-1.9-1.9-1.9h-12.3
				c-2.1,0-4,1-5.2,2.6l-6.4,8.4c-0.2,0.3-0.4,0.7-0.4,1.1c0,1,0.8,1.9,1.9,1.9h12.3c2.1,0,4-1,5.2-2.6l6.4-8.4
				C-58-681.3-57.9-681.6-57.9-682.1"/>
		</g>
		<g id="g49137" transform="translate(757.11,780.47639)">
			<path id="path49139" d="M-69.8-680.2l-0.8,1.1c-0.3,0.4-0.8,0.7-1.3,0.7l-3.1,0l1.9-2.5h3c0.3,0,0.5,0.2,0.5,0.5
				C-69.7-680.4-69.7-680.3-69.8-680.2 M-73.9-674.8l-0.9,1.3c-0.3,0.4-0.8,0.7-1.3,0.7h-3.1l2-2.7h3c0.3,0,0.5,0.2,0.5,0.5
				C-73.8-675-73.8-674.9-73.9-674.8 M-66.8-676.6c1.5-0.3,2.8-1.2,3.7-2.4l1.5-1.9c0.2-0.3,0.4-0.7,0.4-1.1c0-1-0.8-1.9-1.9-1.9
				H-71h-7.7l-10.6,14h7.5h8.5c2.1,0,4-1,5.2-2.6l1.5-2c0.2-0.2,0.3-0.6,0.3-0.9C-66.2-675.9-66.4-676.3-66.8-676.6"/>
		</g>
	</g>
</g>
<g>
	<g>
		<g>
			<polyline class="st0" points="3.3,53.6 51.6,53.6 98.9,6.2 3.3,6.2 3.3,53.6 			"/>
		</g>
		<path class="st1" d="M60,15.1l-9.4,0v22.4l-8.2-22.4h-8.2l-7,18.7c-0.7-4.7-5.6-6.4-9.5-7.6c-2.5-0.8-5.2-2-5.2-3.3
			c0-1.1,1.4-2.1,4.3-1.9c1.9,0.1,3.6,0.3,6.9,1.9l3.3-5.7c-3-1.5-7.2-2.5-10.7-2.5h0c-4,0-7.3,1.3-9.4,3.4
			c-1.4,1.5-2.2,3.4-2.3,5.5c-0.1,2.9,1,4.9,3.2,6.6c1.9,1.4,4.3,2.3,6.4,2.9c2.6,0.8,4.7,1.5,4.7,3c0,0.5-0.2,1.1-0.6,1.5
			c-0.7,0.7-1.7,0.9-3,1c-2.7,0.1-4.6-0.4-7.8-2.2l-2.9,5.8c3.1,1.8,6.9,2.8,10.7,2.8l0.5,0c3.3-0.1,6-1,8.1-2.7
			c0.1-0.1,0.2-0.2,0.3-0.3l-0.9,2.5h8.6l1.4-4.4c1.5,0.5,3.2,0.8,5,0.8c1.8,0,3.4-0.3,4.9-0.8l1.4,4.3h13.9v-9h3
			c7.4,0,11.7-3.7,11.7-10C73.3,18.3,69,15.1,60,15.1z M38.3,34.3c-1.1,0-2.1-0.2-3-0.5l3-9.4h0.1l2.9,9.4
			C40.3,34.1,39.3,34.3,38.3,34.3z M60.6,28.9h-2.1v-7.6h2.1c2.8,0,5,0.9,5,3.7C65.6,28,63.4,28.9,60.6,28.9"/>
	</g>
	<path d="M63.1,50.4c0-1.4,1.1-2.5,2.5-2.5c1.4,0,2.5,1.1,2.5,2.5c0,1.5-1.1,2.6-2.5,2.6C64.2,53,63.1,51.9,63.1,50.4z M65.6,53.5
		c1.7,0,3.1-1.3,3.1-3.1c0-1.8-1.4-3.1-3.1-3.1c-1.7,0-3.1,1.3-3.1,3.1C62.5,52.2,63.9,53.5,65.6,53.5z M64.9,50.7h0.6l0.9,1.5h0.6
		l-1-1.6c0.5-0.1,0.9-0.3,0.9-1c0-0.7-0.4-1-1.2-1h-1.3v3.5h0.5V50.7z M64.9,50.2v-1.1h0.7c0.4,0,0.8,0.1,0.8,0.5
		c0,0.5-0.4,0.6-0.9,0.6H64.9z"/>
</g>
<g>
	<g>
		<path class="st2" d="M190.8,40h9.7c0-0.8-0.3-2.5-0.5-3.1h-9.2V40z"/>
		<path class="st2" d="M190.8,19.5h9.7c0,0.7-0.3,2.5-0.5,3.1h-9.2V19.5z"/>
		<g>
			<path class="st2" d="M166.6,42.8h33.7c0,0.7-0.7,2.6-1,3.1h-32.7V42.8z"/>
			<path class="st2" d="M166.6,13.7h32.7c0.3,0.5,0.9,2.4,1,3.1h-33.7V13.7z"/>
			<path class="st2" d="M172.6,31.2H196c0.8,0.5,2.2,2.3,2.7,3.1h-26.1V31.2z"/>
			<path class="st2" d="M172.6,28.4H196c0.8-0.5,2.2-2.3,2.7-3.1h-26.1V28.4z"/>
			<path class="st2" d="M166.6,48.6H197c-2.7,2.3-5.1,3.1-9.3,3.1h-3h-18.2V48.6z"/>
			<path class="st2" d="M166.6,11H197c-2.7-2.3-5.1-3.1-9.3-3.1h-3h-18.2V11z"/>
			<rect x="172.6" y="37" class="st2" width="9.1" height="3.1"/>
			<rect x="172.6" y="19.5" class="st2" width="9.1" height="3.1"/>
		</g>
	</g>
	<g>
		<rect x="142.3" y="7.9" class="st2" width="21.2" height="3.1"/>
		<rect x="142.3" y="13.7" class="st2" width="21.2" height="3.1"/>
		<rect x="142.3" y="42.8" class="st2" width="21.2" height="3.1"/>
		<rect x="148.4" y="37" class="st2" width="9.1" height="3.1"/>
		<rect x="148.4" y="31.2" class="st2" width="9.1" height="3.1"/>
		<rect x="148.4" y="25.3" class="st2" width="9.1" height="3.1"/>
		<rect x="148.4" y="19.5" class="st2" width="9.1" height="3.1"/>
		<rect x="142.3" y="48.6" class="st2" width="21.2" height="3.1"/>
	</g>
	<g>
		<polygon class="st2" points="223,40 231.5,40 232.5,37 222,37 		"/>
		<polygon class="st2" points="221,34.2 233.5,34.2 234.6,31.2 220,31.2 		"/>
		<polygon class="st2" points="227.1,51.7 227.4,51.7 228.5,48.6 226,48.6 		"/>
		<rect x="209.1" y="37" class="st2" width="9.1" height="3.1"/>
		<rect x="209.1" y="31.2" class="st2" width="9.1" height="3.1"/>
		<rect x="203" y="48.6" class="st2" width="15.2" height="3.1"/>
		<rect x="203" y="42.8" class="st2" width="15.2" height="3.1"/>
		<polygon class="st2" points="225.1,45.9 229.4,45.9 230.5,42.8 224,42.8 		"/>
		<rect x="236.4" y="37" class="st2" width="9.1" height="3.1"/>
		<rect x="236.4" y="31.2" class="st2" width="9.1" height="3.1"/>
		<rect x="236.4" y="48.6" class="st2" width="15.2" height="3.1"/>
		<rect x="236.4" y="42.8" class="st2" width="15.2" height="3.1"/>
		<polygon class="st2" points="224.2,19.5 209.1,19.5 209.1,22.6 225.3,22.6 		"/>
		<polygon class="st2" points="228.2,25.3 227.3,28.1 226.3,25.3 209.1,25.3 209.1,28.4 218.2,28.4 218.2,26 219,28.4 235.5,28.4 
			236.4,26 236.4,26 236.4,26 236.4,28.4 245.5,28.4 245.5,25.3 		"/>
		<polygon class="st2" points="220.1,7.9 203,7.9 203,11 221.2,11 		"/>
		<polygon class="st2" points="222.2,13.7 203,13.7 203,16.8 223.3,16.8 		"/>
		<polygon class="st2" points="230.3,19.5 245.5,19.5 245.5,22.6 229.2,22.6 		"/>
		<polygon class="st2" points="234.4,7.9 251.5,7.9 251.5,11 233.3,11 		"/>
		<polygon class="st2" points="232.3,13.7 251.5,13.7 251.5,16.8 231.3,16.8 		"/>
	</g>
	<path class="st2" d="M257.4,48.8c0.5,0,1.1,0.1,1.1-0.6c0-0.5-0.4-0.6-0.8-0.6h-0.9v1.2H257.4z M258.9,50.6h-0.5l-0.9-1.5h-0.7v1.5
		h-0.4v-3.3h1.4c0.9,0,1.2,0.3,1.2,0.9c0,0.6-0.4,0.9-1,0.9L258.9,50.6z M259.9,49c0-1.4-1-2.5-2.4-2.5c-1.4,0-2.5,1.1-2.5,2.5
		c0,1.4,1,2.5,2.5,2.5C258.8,51.5,259.9,50.4,259.9,49 M254.5,49c0-1.6,1.3-2.9,2.9-2.9c1.6,0,2.9,1.3,2.9,2.9
		c0,1.6-1.3,2.9-2.9,2.9C255.8,51.9,254.5,50.6,254.5,49"/>
</g>
<g>
	<g>
		<g>
			<path d="M400.4,44.7c0,3-1.2,7-4.9,7c-1.8,0-2.9-0.9-2.9-2.8C392.7,45.4,397.8,44.7,400.4,44.7 M405.7,55V38.4
				c0-5.4-3.5-7.3-8.5-7.3c-4.9,0-8.9,2.1-8.9,7.4h5.3c0-2.3,1.2-3.6,3.6-3.6c2.7,0,3.3,2,3.3,4.3v2.3c-5.3,0.1-13.1,0.9-13.1,7.9
				c0,4,3.1,6.1,6.9,6.1c2.6,0,4.9-0.8,6.1-3.2h0.1V55H405.7 M421.8,39.7h5.8c0-5.8-3.2-8.6-8.9-8.6c-7,0-10.7,4.4-10.7,11.2
				c0,8.2,4.2,13.3,12.5,13.3c2.3,0,4.6-0.4,6.8-1.1v-3.3c-1.3,0.4-2.6,0.6-3.9,0.6c-6.2,0-9.6-4.5-9.6-10.4c0-2.8,1-6.4,4.5-6.4
				C421.1,35,421.8,37.3,421.8,39.7 M442.8,39.7h5.8c0-5.8-3.2-8.6-8.9-8.6c-7,0-10.7,4.4-10.7,11.2c0,8.2,4.2,13.3,12.5,13.3
				c2.3,0,4.6-0.4,6.8-1.1v-3.3c-1.3,0.4-2.6,0.6-3.9,0.6c-6.2,0-9.6-4.5-9.6-10.4c0-2.8,1-6.4,4.5-6.4
				C442.1,35,442.8,37.3,442.8,39.7 M464.2,38.6h-8.6c0.2-2.4,2.1-4,4.4-4C462.5,34.6,464.2,36.1,464.2,38.6 M469.3,41.9v-1.3
				c0-5.7-2.9-9.5-8.9-9.5c-7,0-10,4.4-10,11c0,7.7,3.5,13.5,11.8,13.5c2.2,0,4.4-0.2,6.5-0.9v-3.8c-1.4,0.5-3,0.9-4.5,0.9
				c-5.3,0-8.8-4.9-8.8-9.8H469.3 M485.5,55h5.5V38.8c0-4-1.9-7.7-6.4-7.7c-3.3,0-5.7,1.9-6.9,4.9h-0.1v-4.4h-5.5V55h5.5V44.9
				c0-3.2,1.6-8.7,5.5-8.7c0.6,0,1.2,0,1.6,0.4c0.9,0.9,0.8,3.9,0.8,5V55 M502.3,35.4h6.9v-3.8h-6.9v-7.8l-5.4,2.2v5.5h-4.6v3.8h4.6
				v13.7c0,4.9,2.4,6.4,7.2,6.4c1.5,0,3-0.1,4.5-0.4v-3.8c-0.8,0.2-1.7,0.4-2.5,0.4c-3.4,0-3.7-2.5-3.7-5.3V35.4 M525,55h5.5V31.6
				H525v10.1c0,3.2-1.6,8.7-5.5,8.7c-0.5,0-1.2,0-1.6-0.4c-0.9-0.9-0.8-3.9-0.8-5V31.6h-5.4v16.2c0,4,1.9,7.7,6.3,7.7
				c3.3,0,5.7-2,6.9-4.9h0.1V55 M539.4,44.8c0-5.5,2.1-8,7.7-8v-5.7c-3.9,0-5.8,1.6-7.6,4.9h-0.1v-4.3h-5.5V55h5.5V44.8 M561.9,38.6
				h-8.6c0.2-2.4,2.1-4,4.4-4C560.3,34.6,561.9,36.1,561.9,38.6 M567.1,41.9v-1.3c0-5.7-2.9-9.5-8.9-9.5c-7,0-10,4.4-10,11
				c0,7.7,3.5,13.5,11.8,13.5c2.2,0,4.4-0.2,6.5-0.9v-3.8c-1.4,0.5-3,0.9-4.5,0.9c-5.3,0-8.8-4.9-8.8-9.8H567.1"/>
			<path d="M492.3,4.2V8c0,0,10.9,4.2,12.5,4.8c-1.6,0.6-12.5,4.8-12.5,4.8v3.8l17-6.9v-3.5L492.3,4.2"/>
		</g>
	</g>
</g>
<g>
	<polygon points="610.5,51.4 610.5,8.4 634.8,8.4 640.5,18.3 623.3,18.3 623.3,25.4 638.9,25.4 638.9,34.4 623.3,34.4 623.3,41.5 
		644.8,41.5 644.8,51.4 	"/>
	<polygon class="st3" points="623.3,34.4 638.9,34.4 638.9,25.4 623.3,25.4 623.3,18.3 640.5,18.3 634.8,8.4 610.5,8.4 610.5,51.4 
		644.8,51.4 644.8,41.5 623.3,41.5 	"/>
	<polygon points="653.9,51.4 653.9,34.4 638.9,8.4 653.1,8.4 660.4,22.5 667.7,8.4 681.8,8.4 666.7,34.4 666.7,51.4 	"/>
	<polygon class="st3" points="667.7,8.4 660.4,22.5 653.1,8.4 638.9,8.4 653.9,34.4 653.9,51.4 666.7,51.4 666.7,34.4 681.8,8.4 	
		"/>
</g>
<path d="M803.7,21.3h5.5v1.9c0.6-0.5,2.5-2.4,6.1-2.4c4.2,0,7.5,3.1,7.5,7.9v12.6H817v-11c0-2.7-1.3-4.3-3.7-4.3
	c-2.3,0-3.7,1.5-3.7,4.3v11h-5.9V21.3 M859.5,31.3c0-5.8,4.6-10.5,10.7-10.5c6.1,0,10.7,4.7,10.7,10.5c0,5.8-4.6,10.5-10.7,10.5
	C864.2,41.8,859.5,37.1,859.5,31.3 M865.3,31.3c0,2.8,2.1,5,4.9,5c2.9,0,5-2.3,5-5c0-2.8-2.1-5-5-5
	C867.4,26.3,865.3,28.5,865.3,31.3 M779.1,31.3c0-5.8,4.6-10.5,10.7-10.5c6.1,0,10.7,4.7,10.7,10.5c0,5.8-4.6,10.5-10.7,10.5
	C783.7,41.8,779.1,37.1,779.1,31.3 M784.9,31.3c0,2.8,2.1,5,4.9,5c2.9,0,4.9-2.3,4.9-5c0-2.8-2.1-5-4.9-5
	C786.9,26.3,784.9,28.5,784.9,31.3 M909.3,19.1h5.9V14h-5.9V19.1z M909.3,41.3h5.9v-20h-5.9V41.3z M919.9,41.3h5.9V14h-5.9V41.3z
	 M890,41.3h-5.6V14h5.7v8.9c0.3-0.2,2.1-2.1,6.2-2.1c5.3,0,9.7,4.5,9.7,10.5c0,5.9-4.7,10.5-9.7,10.5c-3.8,0-5.7-1.7-6.1-2L890,41.3
	 M899.9,31.3c0-2.8-2.1-5-5-5c-2.8,0-5,2.2-5,5c0,2.8,2.2,5,5,5C897.7,36.3,899.9,34.1,899.9,31.3 M744.5,41.3h6.9l6.2-7.9l3.9,3.9
	l-8.8,11h6.9l5.6-7.3l10.6,10.8h8.3l-15.3-15.3l12-15.2h-6.9l-8.9,11.4l-3.8-3.9l9.9-12.4h-6.9l-6.7,8.7l-3.7-3.8h-8.2l8.3,8.3
	L744.5,41.3 M725.1,14v27.4h18v-5.1h-11.9v-6.5h11.4v-4.9h-11.4v-5.7h11.9V14H725.1 M827.5,14v27.4h5.8V20.7h0.3l5,20.7h6.5
	l5.1-20.7h0.3v20.7h5.8V14h-9.4l-4.7,20h-0.2l-4.6-20H827.5"/>
</svg>
