<?xml version="1.0" encoding="utf-8"?>
<!-- Generator: Adobe Illustrator 22.1.0, SVG Export Plug-In . SVG Version: 6.00 Build 0)  -->
<svg version="1.1" id="Layer_1" xmlns="http://www.w3.org/2000/svg" xmlns:xlink="http://www.w3.org/1999/xlink" x="0px" y="0px"
	 viewBox="0 0 330 163" style="enable-background:new 0 0 330 163;" xml:space="preserve">
<style type="text/css">
	.st0{fill:#FFFFFF;}
	.st1{fill:#F15B40;}
</style>
<g>
	<g>
		<g>
			<path class="st0" d="M202.6,55.5c-13.8,0-25.4,11.1-25.4,24.9v45.4h25.5L202.6,55.5"/>
		</g>
		<g>
			<path class="st1" d="M177.3,45.4c13.8,0,25.4-11.2,25.4-25v-9.6h-25.5L177.3,45.4"/>
		</g>
	</g>
	<path class="st0" d="M281.6,51.8h-14H263h-9.5c-4.3,0-7.8-3.5-7.8-7.8c0-4.3,3.5-7.8,7.8-7.8h52.3V10.8h-52.3
		c-18.3,0-33.2,14.9-33.2,33.2c0,18.3,14.9,29.1,33.2,29.1h9.5h4.6h9.4c10.1,0,16,5.5,16,13.7c0,8.6-6.8,13.5-15.7,13.5h-53.9v25.5
		h58.2c20.4,0,37-16.6,37-37C318.6,68.4,302,51.8,281.6,51.8z"/>
	<path class="st0" d="M131.1,10.8v72.8c0,9.2-7.5,16.7-16.7,16.7c-9.2,0-16.7-7.5-16.7-16.7V10.8H72.2v72.8
		c0,9.2-7.5,16.7-16.7,16.7c-9.2,0-16.7-7.5-16.7-16.7V10.8H13.3v72.8c0,23.2,18.9,42.2,42.2,42.2c11.4,0,21.8-4.6,29.4-12
		c7.6,7.4,18,12,29.4,12c23.2,0,42.2-18.9,42.2-42.2V10.8H131.1z"/>
	<g>
		<path class="st0" d="M16.6,150.4l-3.2-11.9h1.6l1.8,7.8c0.2,0.8,0.4,1.6,0.5,2.4c0.3-1.3,0.5-2,0.5-2.2l2.3-8h1.9l1.7,6
			c0.4,1.5,0.7,2.9,0.9,4.2c0.2-0.8,0.3-1.6,0.6-2.6l1.9-7.6h1.6l-3.3,11.9H24l-2.5-9.1c-0.2-0.8-0.3-1.2-0.4-1.4
			c-0.1,0.5-0.2,1-0.3,1.4l-2.5,9.1H16.6z"/>
		<path class="st0" d="M30.3,150.4v-11.9h8.6v1.4h-7v3.6h6.6v1.4h-6.6v4h7.3v1.4H30.3z"/>
		<path class="st0" d="M41.2,150.4v-11.9h1.6V149h5.9v1.4H41.2z"/>
		<path class="st0" d="M50.5,150.4v-11.9H52V149h5.9v1.4H50.5z"/>
		<path class="st0" d="M59.8,150.4v-11.9h8.6v1.4h-7v3.6H68v1.4h-6.6v4h7.3v1.4H59.8z"/>
		<path class="st0" d="M70.3,146.5l1.5-0.1c0.1,0.6,0.2,1.1,0.5,1.5c0.3,0.4,0.7,0.7,1.2,0.9c0.5,0.2,1.1,0.4,1.8,0.4
			c0.6,0,1.1-0.1,1.6-0.3c0.5-0.2,0.8-0.4,1-0.7c0.2-0.3,0.3-0.6,0.3-1c0-0.4-0.1-0.7-0.3-1c-0.2-0.3-0.6-0.5-1.1-0.7
			c-0.3-0.1-1-0.3-2.1-0.6c-1.1-0.3-1.9-0.5-2.3-0.7c-0.6-0.3-1-0.7-1.3-1.1c-0.3-0.4-0.4-0.9-0.4-1.5c0-0.6,0.2-1.2,0.5-1.7
			c0.3-0.5,0.8-0.9,1.5-1.2c0.7-0.3,1.4-0.4,2.2-0.4c0.9,0,1.7,0.1,2.3,0.4c0.7,0.3,1.2,0.7,1.6,1.3c0.4,0.6,0.6,1.2,0.6,1.9
			l-1.5,0.1c-0.1-0.8-0.4-1.3-0.8-1.7c-0.5-0.4-1.2-0.6-2.1-0.6c-1,0-1.6,0.2-2.1,0.5c-0.4,0.3-0.7,0.8-0.7,1.3
			c0,0.4,0.2,0.8,0.5,1.1c0.3,0.3,1.1,0.6,2.4,0.8c1.3,0.3,2.2,0.5,2.6,0.8c0.7,0.3,1.2,0.7,1.5,1.2c0.3,0.5,0.5,1.1,0.5,1.7
			c0,0.6-0.2,1.2-0.5,1.8c-0.4,0.6-0.9,1-1.6,1.3c-0.7,0.3-1.4,0.5-2.3,0.5c-1.1,0-2-0.2-2.7-0.5c-0.7-0.3-1.3-0.8-1.7-1.4
			C70.5,148,70.3,147.3,70.3,146.5z"/>
		<path class="st0" d="M81.9,150.4v-11.9h1.6V149h5.9v1.4H81.9z"/>
		<path class="st0" d="M91.2,150.4v-11.9h8.6v1.4h-7v3.6h6.6v1.4h-6.6v4h7.3v1.4H91.2z"/>
		<path class="st0" d="M105.6,150.4v-5l-4.6-6.8h1.9l2.3,3.6c0.4,0.7,0.8,1.3,1.2,2c0.4-0.6,0.8-1.3,1.3-2.1l2.3-3.5h1.8l-4.7,6.8v5
			H105.6z"/>
		<path class="st0" d="M117.9,150.4v-11.9h1.6v11.9H117.9z"/>
		<path class="st0" d="M122.2,150.4v-11.9h1.6l6.2,9.3v-9.3h1.5v11.9h-1.6l-6.2-9.3v9.3H122.2z"/>
		<path class="st0" d="M134.3,150.4v-11.9h8v1.4h-6.4v3.7h5.6v1.4h-5.6v5.4H134.3z"/>
		<path class="st0" d="M143.9,144.6c0-2,0.5-3.5,1.6-4.6c1.1-1.1,2.4-1.7,4.1-1.7c1.1,0,2.1,0.3,3,0.8c0.9,0.5,1.6,1.3,2,2.2
			c0.5,0.9,0.7,2,0.7,3.2c0,1.2-0.2,2.3-0.7,3.2c-0.5,1-1.2,1.7-2.1,2.2c-0.9,0.5-1.9,0.7-2.9,0.7c-1.1,0-2.1-0.3-3-0.8
			c-0.9-0.5-1.5-1.3-2-2.2C144.1,146.6,143.9,145.6,143.9,144.6z M145.5,144.6c0,1.4,0.4,2.6,1.2,3.4c0.8,0.8,1.7,1.2,2.9,1.2
			c1.2,0,2.2-0.4,2.9-1.2c0.8-0.8,1.1-2,1.1-3.5c0-1-0.2-1.8-0.5-2.5c-0.3-0.7-0.8-1.3-1.4-1.7c-0.6-0.4-1.3-0.6-2.1-0.6
			c-1.1,0-2.1,0.4-2.9,1.1C145.9,141.5,145.5,142.8,145.5,144.6z"/>
		<path class="st0" d="M157.3,150.4v-11.9h5.3c1.1,0,1.9,0.1,2.4,0.3c0.6,0.2,1,0.6,1.3,1.1c0.3,0.5,0.5,1.1,0.5,1.8
			c0,0.8-0.3,1.6-0.8,2.1c-0.5,0.6-1.4,0.9-2.5,1.1c0.4,0.2,0.7,0.4,0.9,0.6c0.5,0.4,0.9,0.9,1.3,1.6l2.1,3.2h-2l-1.6-2.5
			c-0.5-0.7-0.8-1.3-1.1-1.6c-0.3-0.4-0.6-0.6-0.8-0.8c-0.2-0.2-0.5-0.3-0.7-0.3c-0.2,0-0.5-0.1-0.9-0.1h-1.8v5.3H157.3z
			 M158.8,143.7h3.4c0.7,0,1.3-0.1,1.7-0.2c0.4-0.1,0.7-0.4,0.9-0.7c0.2-0.3,0.3-0.7,0.3-1.1c0-0.6-0.2-1-0.6-1.4
			c-0.4-0.4-1.1-0.5-1.9-0.5h-3.8V143.7z"/>
		<path class="st0" d="M169.2,150.4v-11.9h2.4l2.8,8.4c0.3,0.8,0.4,1.4,0.6,1.8c0.1-0.4,0.3-1.1,0.6-1.9l2.8-8.3h2.1v11.9H179v-9.9
			l-3.5,9.9h-1.4l-3.4-10.1v10.1H169.2z"/>
		<path class="st0" d="M181.8,150.4l4.6-11.9h1.7l4.9,11.9h-1.8l-1.4-3.6h-5l-1.3,3.6H181.8z M185.2,145.5h4l-1.2-3.3
			c-0.4-1-0.7-1.8-0.8-2.5c-0.2,0.8-0.4,1.5-0.6,2.3L185.2,145.5z"/>
		<path class="st0" d="M195.9,150.4v-10.5H192v-1.4h9.4v1.4h-3.9v10.5H195.9z"/>
		<path class="st0" d="M203.3,150.4v-11.9h1.6v11.9H203.3z"/>
		<path class="st0" d="M207.2,144.6c0-2,0.5-3.5,1.6-4.6c1.1-1.1,2.4-1.7,4.1-1.7c1.1,0,2.1,0.3,3,0.8c0.9,0.5,1.6,1.3,2,2.2
			c0.5,0.9,0.7,2,0.7,3.2c0,1.2-0.2,2.3-0.7,3.2c-0.5,1-1.2,1.7-2.1,2.2c-0.9,0.5-1.9,0.7-2.9,0.7c-1.1,0-2.1-0.3-3-0.8
			c-0.9-0.5-1.5-1.3-2-2.2C207.4,146.6,207.2,145.6,207.2,144.6z M208.8,144.6c0,1.4,0.4,2.6,1.2,3.4c0.8,0.8,1.7,1.2,2.9,1.2
			c1.2,0,2.2-0.4,2.9-1.2c0.8-0.8,1.1-2,1.1-3.5c0-1-0.2-1.8-0.5-2.5c-0.3-0.7-0.8-1.3-1.4-1.7c-0.6-0.4-1.3-0.6-2.1-0.6
			c-1.1,0-2.1,0.4-2.9,1.1C209.2,141.5,208.8,142.8,208.8,144.6z"/>
		<path class="st0" d="M220.5,150.4v-11.9h1.6l6.2,9.3v-9.3h1.5v11.9h-1.6l-6.2-9.3v9.3H220.5z"/>
		<path class="st0" d="M236.6,146.5l1.5-0.1c0.1,0.6,0.2,1.1,0.5,1.5c0.3,0.4,0.7,0.7,1.2,0.9c0.5,0.2,1.1,0.4,1.8,0.4
			c0.6,0,1.1-0.1,1.6-0.3c0.5-0.2,0.8-0.4,1-0.7c0.2-0.3,0.3-0.6,0.3-1c0-0.4-0.1-0.7-0.3-1c-0.2-0.3-0.6-0.5-1.1-0.7
			c-0.3-0.1-1-0.3-2.1-0.6c-1.1-0.3-1.9-0.5-2.3-0.7c-0.6-0.3-1-0.7-1.3-1.1c-0.3-0.4-0.4-0.9-0.4-1.5c0-0.6,0.2-1.2,0.5-1.7
			c0.3-0.5,0.8-0.9,1.5-1.2c0.7-0.3,1.4-0.4,2.2-0.4c0.9,0,1.7,0.1,2.3,0.4c0.7,0.3,1.2,0.7,1.6,1.3c0.4,0.6,0.6,1.2,0.6,1.9
			l-1.5,0.1c-0.1-0.8-0.4-1.3-0.8-1.7c-0.5-0.4-1.2-0.6-2.1-0.6c-1,0-1.6,0.2-2.1,0.5c-0.4,0.3-0.7,0.8-0.7,1.3
			c0,0.4,0.2,0.8,0.5,1.1c0.3,0.3,1.1,0.6,2.4,0.8c1.3,0.3,2.2,0.5,2.6,0.8c0.7,0.3,1.2,0.7,1.5,1.2c0.3,0.5,0.5,1.1,0.5,1.7
			c0,0.6-0.2,1.2-0.5,1.8c-0.4,0.6-0.9,1-1.6,1.3c-0.7,0.3-1.4,0.5-2.3,0.5c-1.1,0-2-0.2-2.7-0.5c-0.7-0.3-1.3-0.8-1.7-1.4
			C236.9,148,236.6,147.3,236.6,146.5z"/>
		<path class="st0" d="M248.3,150.4v-11.9h8.6v1.4h-7v3.6h6.6v1.4h-6.6v4h7.3v1.4H248.3z"/>
		<path class="st0" d="M259.3,150.4v-11.9h5.3c1.1,0,1.9,0.1,2.4,0.3c0.6,0.2,1,0.6,1.3,1.1c0.3,0.5,0.5,1.1,0.5,1.8
			c0,0.8-0.3,1.6-0.8,2.1c-0.5,0.6-1.4,0.9-2.5,1.1c0.4,0.2,0.7,0.4,0.9,0.6c0.5,0.4,0.9,0.9,1.3,1.6l2.1,3.2h-2l-1.6-2.5
			c-0.5-0.7-0.8-1.3-1.1-1.6c-0.3-0.4-0.6-0.6-0.8-0.8c-0.2-0.2-0.5-0.3-0.7-0.3c-0.2,0-0.5-0.1-0.9-0.1h-1.8v5.3H259.3z
			 M260.9,143.7h3.4c0.7,0,1.3-0.1,1.7-0.2c0.4-0.1,0.7-0.4,0.9-0.7c0.2-0.3,0.3-0.7,0.3-1.1c0-0.6-0.2-1-0.6-1.4
			c-0.4-0.4-1.1-0.5-1.9-0.5h-3.8V143.7z"/>
		<path class="st0" d="M274.4,150.4l-4.6-11.9h1.7l3.1,8.6c0.2,0.7,0.5,1.3,0.6,1.9c0.2-0.6,0.4-1.3,0.6-1.9l3.2-8.6h1.6l-4.7,11.9
			H274.4z"/>
		<path class="st0" d="M282.3,150.4v-11.9h1.6v11.9H282.3z"/>
		<path class="st0" d="M295.1,146.2l1.6,0.4c-0.3,1.3-0.9,2.3-1.8,3c-0.9,0.7-1.9,1-3.1,1c-1.3,0-2.3-0.3-3.1-0.8
			c-0.8-0.5-1.4-1.3-1.8-2.3c-0.4-1-0.6-2.1-0.6-3.2c0-1.2,0.2-2.3,0.7-3.2c0.5-0.9,1.1-1.6,2-2.1c0.9-0.5,1.8-0.7,2.9-0.7
			c1.2,0,2.2,0.3,3,0.9c0.8,0.6,1.4,1.5,1.7,2.6l-1.5,0.4c-0.3-0.9-0.7-1.5-1.2-1.9c-0.5-0.4-1.2-0.6-2-0.6c-0.9,0-1.7,0.2-2.3,0.7
			c-0.6,0.4-1,1-1.3,1.8c-0.2,0.7-0.4,1.5-0.4,2.3c0,1,0.1,1.9,0.4,2.6c0.3,0.8,0.8,1.3,1.4,1.7c0.6,0.4,1.3,0.6,2,0.6
			c0.9,0,1.6-0.3,2.2-0.8C294.5,147.9,294.9,147.2,295.1,146.2z"/>
		<path class="st0" d="M298.7,150.4v-11.9h8.6v1.4h-7v3.6h6.6v1.4h-6.6v4h7.3v1.4H298.7z"/>
		<path class="st0" d="M309.2,146.5l1.5-0.1c0.1,0.6,0.2,1.1,0.5,1.5c0.3,0.4,0.7,0.7,1.2,0.9c0.5,0.2,1.1,0.4,1.8,0.4
			c0.6,0,1.1-0.1,1.6-0.3c0.5-0.2,0.8-0.4,1-0.7c0.2-0.3,0.3-0.6,0.3-1c0-0.4-0.1-0.7-0.3-1c-0.2-0.3-0.6-0.5-1.1-0.7
			c-0.3-0.1-1-0.3-2.1-0.6c-1.1-0.3-1.9-0.5-2.3-0.7c-0.6-0.3-1-0.7-1.3-1.1c-0.3-0.4-0.4-0.9-0.4-1.5c0-0.6,0.2-1.2,0.5-1.7
			c0.3-0.5,0.8-0.9,1.5-1.2c0.7-0.3,1.4-0.4,2.2-0.4c0.9,0,1.7,0.1,2.3,0.4c0.7,0.3,1.2,0.7,1.6,1.3c0.4,0.6,0.6,1.2,0.6,1.9
			l-1.5,0.1c-0.1-0.8-0.4-1.3-0.8-1.7c-0.5-0.4-1.2-0.6-2.1-0.6c-1,0-1.6,0.2-2.1,0.5c-0.4,0.3-0.7,0.8-0.7,1.3
			c0,0.4,0.2,0.8,0.5,1.1c0.3,0.3,1.1,0.6,2.4,0.8c1.3,0.3,2.2,0.5,2.6,0.8c0.7,0.3,1.2,0.7,1.5,1.2c0.3,0.5,0.5,1.1,0.5,1.7
			c0,0.6-0.2,1.2-0.5,1.8c-0.4,0.6-0.9,1-1.6,1.3c-0.7,0.3-1.4,0.5-2.3,0.5c-1.1,0-2-0.2-2.7-0.5c-0.7-0.3-1.3-0.8-1.7-1.4
			C309.4,148,309.2,147.3,309.2,146.5z"/>
	</g>
</g>
</svg>
